<?xml version="1.0" standalone="no"?><!DOCTYPE svg PUBLIC "-//W3C//DTD SVG 1.1//EN" "http://www.w3.org/Graphics/SVG/1.1/DTD/svg11.dtd"><svg t="1614950059559" class="icon" viewBox="0 0 1024 1024" version="1.1" xmlns="http://www.w3.org/2000/svg" p-id="3347" xmlns:xlink="http://www.w3.org/1999/xlink" width="200" height="200"><defs><style type="text/css"></style></defs><path d="M512 136.533333c-20.48 0-27.306667 13.653333-40.96 27.306667l-395.946667 648.533333c-6.826667 6.826667-6.826667 20.48-6.826666 27.306667 0 34.133333 27.306667 47.786667 47.786666 47.786667h791.893334c27.306667 0 47.786667-13.653333 47.786666-47.786667 0-13.653333 0-13.653333-6.826666-27.306667L559.786667 163.84C546.133333 150.186667 532.48 136.533333 512 136.533333z m0 102.4L737.28 614.4H682.666667L580.266667 512 512 614.4l-68.266667-102.4L341.333333 614.4h-61.44l232.106667-375.466667z" p-id="3348"></path></svg>